<?xml version="1.0" encoding="iso-8859-1"?>
<!-- Generator: Adobe Illustrator 19.0.0, SVG Export Plug-In . SVG Version: 6.00 Build 0)  -->
<svg version="1.1" id="Capa_1" xmlns="http://www.w3.org/2000/svg" xmlns:xlink="http://www.w3.org/1999/xlink" x="0px" y="0px"
	 viewBox="0 0 512 512" style="enable-background:new 0 0 512 512;" xml:space="preserve">
<g>
	<g>
		<path d="M256,0c-8.284,0-15,6.716-15,15v64.081c0,8.284,6.716,15,15,15s15-6.716,15-15V15C271,6.716,264.284,0,256,0z"/>
	</g>
</g>
<g>
	<g>
		<path d="M256,417.919c-8.284,0-15,6.716-15,15V497c0,8.284,6.716,15,15,15s15-6.716,15-15v-64.081
			C271,424.635,264.284,417.919,256,417.919z"/>
	</g>
</g>
<g>
	<g>
		<path d="M121.718,100.505L96.194,74.98c-5.857-5.857-15.355-5.857-21.213,0c-5.858,5.857-5.858,15.355,0,21.213l25.524,25.525
			c5.858,5.858,15.355,5.858,21.213,0C127.576,115.861,127.576,106.363,121.718,100.505z"/>
	</g>
</g>
<g>
	<g>
		<path d="M437.019,74.981c-5.857-5.857-15.355-5.857-21.213,0l-25.524,25.524c-5.858,5.857-5.858,15.355,0,21.213
			c5.858,5.858,15.355,5.857,21.213,0l25.524-25.524C442.877,90.337,442.877,80.839,437.019,74.981z"/>
	</g>
</g>
<g>
	<g>
		<path d="M121.718,390.282c-5.857-5.857-15.355-5.857-21.213,0l-25.524,25.524c-5.858,5.857-5.858,15.355,0,21.213
			c5.858,5.858,15.355,5.858,21.213,0l25.524-25.524C127.576,405.638,127.576,396.14,121.718,390.282z"/>
	</g>
</g>
<g>
	<g>
		<path d="M364.983,343.771C384.372,319.743,396,289.206,396,256s-11.628-63.743-31.017-87.77l18.241-18.24
			c5.858-5.857,5.858-15.354,0-21.213c-5.858-5.859-15.355-5.858-21.213,0l-18.241,18.24C319.743,127.628,289.206,116,256,116
			s-63.743,11.628-87.77,31.017l-18.241-18.24c-5.858-5.859-15.355-5.857-21.213,0c-5.857,5.858-5.857,15.355,0,21.213l18.241,18.24
			C127.628,192.257,116,222.794,116,256s11.628,63.743,31.017,87.77l-18.241,18.24c-5.858,5.857-5.858,15.354,0,21.213
			c5.856,5.857,15.355,5.859,21.213,0l18.241-18.24C192.257,384.372,222.794,396,256,396s63.743-11.628,87.77-31.017l18.241,18.24
			c5.857,5.858,15.354,5.859,21.213,0c5.858-5.858,5.858-15.355,0-21.212L364.983,343.771z M256,366c-60.654,0-110-49.346-110-110
			s49.346-110,110-110s110,49.346,110,110S316.654,366,256,366z"/>
	</g>
</g>
<g>
	<g>
		<path d="M437.019,415.806l-25.524-25.524c-5.857-5.857-15.355-5.857-21.213,0c-5.858,5.857-5.858,15.355,0,21.213l25.524,25.524
			c5.858,5.858,15.355,5.858,21.213,0C442.877,431.162,442.877,421.664,437.019,415.806z"/>
	</g>
</g>
<g>
	<g>
		<path d="M79.081,241H15c-8.284,0-15,6.716-15,15s6.716,15,15,15h64.081c8.284,0,15-6.716,15-15S87.365,241,79.081,241z"/>
	</g>
</g>
<g>
	<g>
		<path d="M497,241h-64.081c-8.284,0-15,6.716-15,15s6.716,15,15,15H497c8.284,0,15-6.716,15-15S505.284,241,497,241z"/>
	</g>
</g>
<g>
</g>
<g>
</g>
<g>
</g>
<g>
</g>
<g>
</g>
<g>
</g>
<g>
</g>
<g>
</g>
<g>
</g>
<g>
</g>
<g>
</g>
<g>
</g>
<g>
</g>
<g>
</g>
<g>
</g>
</svg>
